<?xml version="1.0" standalone="no"?>
<!DOCTYPE svg PUBLIC "-//W3C//DTD SVG 20010904//EN"
 "http://www.w3.org/TR/2001/REC-SVG-20010904/DTD/svg10.dtd">
<svg version="1.0" xmlns="http://www.w3.org/2000/svg"
 width="2048.000000pt" height="2048.000000pt" viewBox="0 0 2048.000000 2048.000000"
 preserveAspectRatio="xMidYMid meet">

<g transform="translate(0.000000,2048.000000) scale(0.100000,-0.100000)"
fill="#000000" stroke="none">
<path d="M7055 13159 c-172 -7 -444 -32 -545 -49 -60 -11 -98 -34 -117 -71
-18 -34 -18 -5397 0 -5449 8 -24 24 -41 49 -55 36 -19 39 -19 140 -2 224 37
531 61 798 62 144 0 418 -11 475 -20 17 -2 71 -9 120 -15 50 -5 101 -12 115
-15 14 -3 41 -8 60 -11 81 -13 334 -68 445 -95 368 -92 821 -281 1105 -461
139 -88 260 -171 256 -175 -2 -2 -111 32 -242 76 -513 172 -853 255 -1329 325
-220 32 -406 46 -685 50 -518 8 -882 -31 -1314 -140 -77 -19 -150 -33 -162
-30 -13 4 -32 19 -43 35 l-21 29 -2 2648 -3 2649 -155 -3 c-182 -4 -223 -17
-268 -85 l-27 -41 -3 -2790 c-2 -2572 -1 -2794 14 -2835 20 -51 64 -97 119
-122 38 -18 113 -19 1832 -19 l1792 0 63 -48 c196 -148 375 -202 693 -208 201
-4 336 14 473 61 127 44 252 116 295 172 l18 23 1800 0 c1593 0 1804 2 1836
15 58 25 104 64 124 109 18 40 19 127 19 2826 0 2681 -1 2787 -19 2825 -19 43
-69 91 -110 107 -23 8 -310 13 -318 5 -2 -2 -4 -1185 -5 -2628 -1 -1443 -5
-2638 -10 -2656 -5 -17 -22 -41 -38 -53 l-30 -21 -142 35 c-494 120 -933 159
-1525 135 -399 -17 -945 -108 -1348 -226 -66 -19 -142 -41 -170 -48 -61 -17
-330 -105 -443 -146 -45 -17 -87 -29 -93 -27 -5 2 25 26 68 53 42 28 124 81
182 119 89 58 407 223 506 263 140 56 316 120 420 153 210 67 644 156 855 175
41 4 82 9 90 10 34 6 255 17 395 19 195 3 464 -10 615 -29 19 -3 62 -7 95 -10
33 -4 95 -13 139 -21 116 -21 133 -19 172 20 l34 34 0 2715 0 2714 -23 34
c-30 45 -67 56 -272 80 -785 91 -1579 1 -2345 -266 -228 -80 -575 -249 -808
-394 -126 -78 -315 -215 -375 -270 -34 -31 -26 -34 -189 90 -501 383 -1196
674 -1893 793 -415 70 -739 92 -1140 75z m715 -233 c558 -57 1001 -174 1480
-389 121 -54 312 -153 370 -191 19 -13 76 -49 126 -80 91 -56 315 -217 360
-259 l24 -22 0 -2250 c0 -1238 0 -2368 0 -2512 0 -204 -3 -263 -12 -263 -7 1
-62 36 -121 78 -171 123 -373 242 -568 332 -638 296 -1407 453 -2144 437 -137
-3 -293 -11 -345 -16 -52 -6 -120 -13 -150 -16 -30 -3 -84 -10 -119 -16 -35
-5 -68 -6 -73 -1 -4 4 -7 1164 -5 2577 l2 2570 45 6 c52 7 178 18 330 29 158
11 635 3 800 -14z m5929 0 c90 -9 169 -20 177 -26 10 -9 12 -465 11 -2578 -2
-2560 -2 -2567 -22 -2566 -11 1 -85 9 -165 18 -80 8 -167 18 -195 21 -96 10
-581 13 -695 5 -366 -29 -619 -68 -917 -141 -347 -85 -568 -165 -905 -327
-212 -102 -355 -186 -508 -296 -57 -42 -110 -76 -116 -76 -7 0 -14 17 -16 38
-9 69 -6 4957 3 4979 18 48 420 326 644 444 283 149 664 297 989 383 200 53
609 117 868 135 172 12 651 5 847 -13z"/>
</g>
</svg>
